# Author: Mary Katherine Heinrich <mkheinrich@gmail.com>, IRIDIA, 13-November-2019. Rhino

mtllib IRIDIAepuck3D_Nov2019_RightLED.mtl
o object_1
usemtl Grey
v 0.01115703396499157 -0.02371039986610413 0.07459999620914459
v 0.01115703396499157 -0.02371039986610413 0.07626666873693466
v 0.01174629013985395 -0.02429965510964394 0.07459999620914459
v 0.01174629013985395 -0.02429965510964394 0.07626666873693466
v 0.01204091776162386 -0.02400502748787403 0.07459999620914459
v 0.01204091776162386 -0.02400502748787403 0.07626666873693466
v 0.01218823902308941 -0.02410153672099114 0.07459999620914459
v 0.01218823902308941 -0.02410153672099114 0.07626666873693466
v 0.01234372705221176 -0.02418581768870354 0.07459999620914459
v 0.01234372705221176 -0.02418581768870354 0.07626666873693466
v 0.01250653248280287 -0.02425651624798775 0.07459999620914459
v 0.01250653248280287 -0.02425651624798775 0.07626666873693466
v 0.0126756252720952 -0.02431240491569042 0.07459999620914459
v 0.0126756252720952 -0.02431240491569042 0.07626666873693466
v 0.01284980960190296 -0.02435244806110859 0.07459999620914459
v 0.01284980960190296 -0.02435244806110859 0.07626666873693466
v 0.01302775088697672 -0.02437582798302174 0.07459999620914459
v 0.01302775088697672 -0.02437582798302174 0.07626666873693466
v 0.01320800185203552 -0.02438198588788509 0.07459999620914459
v 0.01320800185203552 -0.02438198588788509 0.07626666873693466
v 0.01338904444128275 -0.02437064982950687 0.07459999620914459
v 0.01338904444128275 -0.02437064982950687 0.07626666873693466
v 0.01356932707130909 -0.02434183843433857 0.07459999620914459
v 0.01356932707130909 -0.02434183843433857 0.07626666873693466
v 0.01374731212854385 -0.02429587580263615 0.07459999620914459
v 0.01374731212854385 -0.02429587580263615 0.07626666873693466
v 0.01392151974141598 -0.02423336729407311 0.07459999620914459
v 0.01392151974141598 -0.02423336729407311 0.07626666873693466
v 0.01409056503325701 -0.02415519021451473 0.07459999620914459
v 0.01409056503325701 -0.02415519021451473 0.07626666873693466
v 0.01425319351255894 -0.02406244166195393 0.07459999620914459
v 0.01425319351255894 -0.02406244166195393 0.07626666873693466
v 0.01440831553190947 -0.0239564199000597 0.07459999620914459
v 0.01440831553190947 -0.0239564199000597 0.07626666873693466
v 0.01455501560121775 -0.02383856289088726 0.07459999620914459
v 0.01455501560121775 -0.02383856289088726 0.07626666873693466
v 0.01469256822019815 -0.02371039986610413 0.07459999620914459
v 0.01469256822019815 -0.02371039986610413 0.07626666873693466
v 0.01469256822019815 -0.02017486654222012 0.07459999620914459
v 0.01469256822019815 -0.02017486654222012 0.07626666873693466
v 0.01482072938233614 -0.02357284724712372 0.07459999620914459
v 0.01482072938233614 -0.02357284724712372 0.07626666873693466
v 0.01493858732283115 -0.02342614717781544 0.07459999620914459
v 0.01493858732283115 -0.02342614717781544 0.07626666873693466
v 0.01498719584196806 -0.02105874940752983 0.07459999620914459
v 0.01498719584196806 -0.02105874940752983 0.07626666873693466
v 0.01504460908472538 -0.02327102608978748 0.07459999620914459
v 0.01504460908472538 -0.02327102608978748 0.07626666873693466
v 0.01508370507508516 -0.02120607160031796 0.07459999620914459
v 0.01508370507508516 -0.02120607160031796 0.07626666873693466
v 0.01513735670596361 -0.02310839667916298 0.07459999620914459
v 0.01513735670596361 -0.02310839667916298 0.07626666873693466
v 0.01516798604279757 -0.02136155962944031 0.07459999620914459
v 0.01516798604279757 -0.02136155962944031 0.07626666873693466
v 0.01521553657948971 -0.02293935231864452 0.07459999620914459
v 0.01521553657948971 -0.02293935231864452 0.07626666873693466
v 0.01523868273943663 -0.02152436412870884 0.07459999620914459
v 0.01523868273943663 -0.02152436412870884 0.07626666873693466
v 0.01527804415673018 -0.0227651447057724 0.07459999620914459
v 0.01527804415673018 -0.0227651447057724 0.07626666873693466
v 0.01528182439506054 -0.02076412178575993 0.07459999620914459
v 0.01528182439506054 -0.02076412178575993 0.07626666873693466
v 0.01529457233846188 -0.02169345691800118 0.07459999620914459
v 0.01529457233846188 -0.02169345691800118 0.07626666873693466
v 0.0153240067884326 -0.02258715778589249 0.07459999620914459
v 0.0153240067884326 -0.02258715778589249 0.07626666873693466
v 0.01533461455255747 -0.02186764217913151 0.07459999620914459
v 0.01533461455255747 -0.02186764217913151 0.07626666873693466
v 0.01535281725227833 -0.02240687794983387 0.07459999620914459
v 0.01535281725227833 -0.02240687794983387 0.07626666873693466
v 0.01535799540579319 -0.02204558439552784 0.07459999620914459
v 0.01535799540579319 -0.02204558439552784 0.07626666873693466
v 0.01536415424197912 -0.02222583442926407 0.07459999620914459
v 0.01536415424197912 -0.02222583442926407 0.07626666873693466
vt 0 0
vt 0 0.6249995827674866
vt 0.0300407949835062 0
vt 0.0300407949835062 0.6249995827674866
vt 0.0300407949835062 0
vt 0.0300407949835062 0.6249995827674866
vt 0.09012238681316376 0
vt 0.09012238681316376 0.6249995827674866
vt 0.09012238681316376 0
vt 0.09012238681316376 0.6249995827674866
vt 0.4506119191646576 0
vt 0.4506119191646576 0.6249995827674866
vt 0.4506119191646576 0
vt 0.4506119191646576 0.6249995827674866
vt 0.5106934905052185 0
vt 0.5106934905052185 0.6249995827674866
vt 0.5106934905052185 0
vt 0.5106934905052185 0.6249995827674866
vt 0.5407342910766602 0
vt 0.5407342910766602 0.6249995827674866
vt 0.5407342910766602 0
vt 0.5407342910766602 0.6249995827674866
vt 0.5550863742828369 0
vt 0.5550863742828369 0.6249995827674866
vt 0.5694383978843689 0
vt 0.5694383978843689 0.6249995827674866
vt 0.5837904810905457 0
vt 0.5837904810905457 0.6249995827674866
vt 0.5981425046920776 0
vt 0.5981425046920776 0.6249995827674866
vt 0.6124945878982544 0
vt 0.6124945878982544 0.6249995827674866
vt 0.6268466114997864 0
vt 0.6268466114997864 0.6249995827674866
vt 0.6411986947059631 0
vt 0.6411986947059631 0.6249995827674866
vt 0.6555507183074951 0
vt 0.6555507183074951 0.6249995827674866
vt 0.6699028015136719 0
vt 0.6699028015136719 0.6249995827674866
vt 0.6842548251152039 0
vt 0.6842548251152039 0.6249995827674866
vt 0.6986069083213806 0
vt 0.6986069083213806 0.6249995827674866
vt 0.7129589319229126 0
vt 0.7129589319229126 0.6249995827674866
vt 0.7273110151290894 0
vt 0.7273110151290894 0.6249995827674866
vt 0.7416630387306213 0
vt 0.7416630387306213 0.6249995827674866
vt 0.7560151219367981 0
vt 0.7560151219367981 0.6249995827674866
vt 0.7703671455383301 0
vt 0.7703671455383301 0.6249995827674866
vt 0.7847192287445068 0
vt 0.7847192287445068 0.6249995827674866
vt 0.7990712523460388 0
vt 0.7990712523460388 0.6249995827674866
vt 0.8134233355522156 0
vt 0.8134233355522156 0.6249995827674866
vt 0.8277753591537476 0
vt 0.8277753591537476 0.6249995827674866
vt 0.8421274423599243 0
vt 0.8421274423599243 0.6249995827674866
vt 0.8564794659614563 0
vt 0.8564794659614563 0.6249995827674866
vt 0.8708315491676331 0
vt 0.8708315491676331 0.6249995827674866
vt 0.885183572769165 0
vt 0.885183572769165 0.6249995827674866
vt 0.8995356559753418 0
vt 0.8995356559753418 0.6249995827674866
vt 0.9138876795768738 0
vt 0.9138876795768738 0.6249995827674866
vt 0.9282397627830505 0
vt 0.9282397627830505 0.6249995827674866
vt 0.9425917863845825 0
vt 0.9425917863845825 0.6249995827674866
vt 0.9569438695907593 0
vt 0.9569438695907593 0.6249995827674866
vt 0.9712958931922913 0
vt 0.9712958931922913 0.6249995827674866
vt 0.985647976398468 0
vt 0.985647976398468 0.6249995827674866
vt 1 0
vt 1 0.6249995827674866
vt 0.03124594688415527 0.8750000596046448
vt 0 0.8750000596046448
vt 0 1
vt 0.3749513626098633 1
vt 0.3749513626098633 0.8750000596046448
vt 0.343705415725708 0.8750000596046448
vt 0.3410110175609589 0.849138081073761
vt 0.3372352123260498 0.8237066268920898
vt 0.3323510587215424 0.7989400625228882
vt 0.3263483345508575 0.7750771641731262
vt 0.3192352950572968 0.7523548603057861
vt 0.3110395073890686 0.7310014963150024
vt 0.3018080592155457 0.7112297415733337
vt 0.2916069626808167 0.6932297348976135
vt 0.2805195748806 0.6771637201309204
vt 0.2686444520950317 0.6631606817245483
vt 0.256092369556427 0.6513131856918335
vt 0.2429830282926559 0.6416754722595215
vt 0.2294413596391678 0.634263277053833
vt 0.2155939340591431 0.6290554404258728
vt 0.2015654742717743 0.6259964108467102
vt 0.1874756813049316 0.6250002384185791
vt 0.173385888338089 0.6259964108467102
vt 0.1593574285507202 0.6290554404258728
vt 0.1455100029706955 0.634263277053833
vt 0.1319683343172073 0.6416754722595215
vt 0.1188589781522751 0.6513131856918335
vt 0.106306903064251 0.6631606817245483
vt 0.09443178772926331 0.6771637201309204
vt 0.08334440737962723 0.6932297348976135
vt 0.07314330339431763 0.7112297415733337
vt 0.06391186267137528 0.7310014963150024
vt 0.05571606755256653 0.7523548603057861
vt 0.04860302433371544 0.7750771641731262
vt 0.04260031133890152 0.7989400625228882
vt 0.03771615028381348 0.8237066268920898
vt 0.03394035995006561 0.849138081073761
vt 0.03124594688415527 0.7500001788139343
vt 0 0.7500001788139343
vt 0 0.6250002384185791
vt 0.3749513626098633 0.6250002384185791
vt 0.3749513626098633 0.7500001788139343
vt 0.343705415725708 0.7500001788139343
vt 0.3410110175609589 0.7758621573448181
vt 0.3372352123260498 0.8012936115264893
vt 0.3323510587215424 0.8260601758956909
vt 0.3263483345508575 0.8499230742454529
vt 0.3192352950572968 0.872645378112793
vt 0.3110395073890686 0.8939986824989319
vt 0.3018080592155457 0.9137704968452454
vt 0.2916069626808167 0.9317705035209656
vt 0.2805195748806 0.9478364586830139
vt 0.2686444520950317 0.9618395566940308
vt 0.256092369556427 0.9736870527267456
vt 0.2429830282926559 0.9833247661590576
vt 0.2294413596391678 0.9907369613647461
vt 0.2155939340591431 0.9959447383880615
vt 0.2015654742717743 0.9990038275718689
vt 0.1874756813049316 1
vt 0.173385888338089 0.9990038275718689
vt 0.1593574285507202 0.9959447383880615
vt 0.1455100029706955 0.9907369613647461
vt 0.1319683343172073 0.9833247661590576
vt 0.1188589781522751 0.9736870527267456
vt 0.106306903064251 0.9618395566940308
vt 0.09443178772926331 0.9478364586830139
vt 0.08334440737962723 0.9317705035209656
vt 0.07314330339431763 0.9137704968452454
vt 0.06391186267137528 0.8939986824989319
vt 0.05571606755256653 0.872645378112793
vt 0.04860302433371544 0.8499230742454529
vt 0.04260031133890152 0.8260601758956909
vt 0.03771615028381348 0.8012936115264893
vt 0.03394035995006561 0.7758621573448181
vn 0.7071067690849304 -0.7071067690849304 0
vn 0.7071067690849304 -0.7071067690849304 0
vn 0.7071067690849304 -0.7071067690849304 0
vn 0.7071067690849304 -0.7071067690849304 0
vn 0.7071067690849304 0.7071067690849304 0
vn 0.7071067690849304 0.7071067690849304 0
vn 0.7071067690849304 0.7071067690849304 0
vn 0.7071067690849304 0.7071067690849304 0
vn -0.7071067690849304 0.7071067690849304 0
vn -0.7071067690849304 0.7071067690849304 0
vn -0.7071067690849304 0.7071067690849304 0
vn -0.7071067690849304 0.7071067690849304 0
vn -0.7071067690849304 -0.7071067690849304 0
vn -0.7071067690849304 -0.7071067690849304 0
vn -0.7071067690849304 -0.7071067690849304 0
vn -0.7071067690849304 -0.7071067690849304 0
vn 0.7071067690849304 -0.7071067690849304 0
vn 0.7071067690849304 -0.7071067690849304 0
vn 0.7071067690849304 -0.7071067690849304 0
vn 0.7071067690849304 -0.7071067690849304 0
vn -0.5812382102012634 -0.8137334585189819 0
vn -0.5812382102012634 -0.8137334585189819 0
vn -0.5132965445518494 -0.8582112789154053 0
vn -0.5132965445518494 -0.8582112789154053 0
vn -0.4384085536003113 -0.8987758159637451 0
vn -0.4384085536003113 -0.8987758159637451 0
vn -0.3569450378417969 -0.9341253638267517 0
vn -0.3569450378417969 -0.9341253638267517 0
vn -0.2696502506732941 -0.9629583358764648 0
vn -0.2696502506732941 -0.9629583358764648 0
vn -0.177659198641777 -0.9840920567512512 0
vn -0.177659198641777 -0.9840920567512512 0
vn -0.08246185630559921 -0.996594250202179 0
vn -0.08246185630559921 -0.996594250202179 0
vn 0.01419117767363787 -0.9998993277549744 0
vn 0.01419117767363787 -0.9998993277549744 0
vn 0.1104315295815468 -0.9938837289810181 0
vn 0.1104315295815468 -0.9938837289810181 0
vn 0.2044383436441422 -0.978879451751709 0
vn 0.2044383436441422 -0.978879451751709 0
vn 0.2945931553840637 -0.9556227922439575 0
vn 0.2945931553840637 -0.9556227922439575 0
vn 0.3795943558216095 -0.9251530170440674 0
vn 0.3795943558216095 -0.9251530170440674 0
vn 0.458515852689743 -0.8886862397193909 0
vn 0.458515852689743 -0.8886862397193909 0
vn 0.5308094024658203 -0.8474912047386169 0
vn 0.5308094024658203 -0.8474912047386169 0
vn 0.5962645411491394 -0.8027880191802979 0
vn 0.5962645411491394 -0.8027880191802979 0
vn 0.6549431681632996 -0.755678117275238 0
vn 0.6549431681632996 -0.755678117275238 0
vn 0.7071067690849304 -0.7071067690849304 0
vn 0.7071067690849304 -0.7071067690849304 0
vn 0.755678117275238 -0.6549431681632996 0
vn 0.755678117275238 -0.6549431681632996 0
vn 0.8027880191802979 -0.5962645411491394 0
vn 0.8027880191802979 -0.5962645411491394 0
vn 0.8474912047386169 -0.5308094024658203 0
vn 0.8474912047386169 -0.5308094024658203 0
vn 0.8886862397193909 -0.458515852689743 0
vn 0.8886862397193909 -0.458515852689743 0
vn 0.9251530170440674 -0.3795943558216095 0
vn 0.9251530170440674 -0.3795943558216095 0
vn 0.9556227922439575 -0.2945931553840637 0
vn 0.9556227922439575 -0.2945931553840637 0
vn 0.978879451751709 -0.2044383436441422 0
vn 0.978879451751709 -0.2044383436441422 0
vn 0.9938837289810181 -0.1104315295815468 0
vn 0.9938837289810181 -0.1104315295815468 0
vn 0.9998993277549744 -0.01419117767363787 0
vn 0.9998993277549744 -0.01419117767363787 0
vn 0.996594250202179 0.08246185630559921 0
vn 0.996594250202179 0.08246185630559921 0
vn 0.9840920567512512 0.177659198641777 0
vn 0.9840920567512512 0.177659198641777 0
vn 0.9629583358764648 0.2696502506732941 0
vn 0.9629583358764648 0.2696502506732941 0
vn 0.9341253638267517 0.3569450378417969 0
vn 0.9341253638267517 0.3569450378417969 0
vn 0.8987758159637451 0.4384085536003113 0
vn 0.8987758159637451 0.4384085536003113 0
vn 0.8582112789154053 0.5132965445518494 0
vn 0.8582112789154053 0.5132965445518494 0
vn 0.8137334585189819 0.5812382102012634 0
vn 0.8137334585189819 0.5812382102012634 0
vn 0 0 -1
vn 0 0 -1
vn 0 0 -1
vn 0 0 -1
vn 0 0 -1
vn 0 0 -1
vn 0 0 -1
vn 0 0 -1
vn 0 0 -1
vn 0 0 -1
vn 0 0 -1
vn 0 0 -1
vn 0 0 -1
vn 0 0 -1
vn 0 0 -1
vn 0 0 -1
vn 0 0 -1
vn 0 0 -1
vn 0 0 -1
vn 0 0 -1
vn 0 0 -1
vn 0 0 -1
vn 0 0 -1
vn 0 0 -1
vn 0 0 -1
vn 0 0 -1
vn 0 0 -1
vn 0 0 -1
vn 0 0 -1
vn 0 0 -1
vn 0 0 -1
vn 0 0 -1
vn 0 0 -1
vn 0 0 -1
vn 0 0 -1
vn 0 0 -1
vn 0 0 -1
vn 0 0 1
vn 0 0 1
vn 0 0 1
vn 0 0 1
vn 0 0 1
vn 0 0 1
vn 0 0 1
vn 0 0 1
vn 0 0 1
vn 0 0 1
vn 0 0 1
vn 0 0 1
vn 0 0 1
vn 0 0 1
vn 0 0 1
vn 0 0 1
vn 0 0 1
vn 0 0 1
vn 0 0 1
vn 0 0 1
vn 0 0 1
vn 0 0 1
vn 0 0 1
vn 0 0 1
vn 0 0 1
vn 0 0 1
vn 0 0 1
vn 0 0 1
vn 0 0 1
vn 0 0 1
vn 0 0 1
vn 0 0 1
vn 0 0 1
vn 0 0 1
vn 0 0 1
vn 0 0 1
vn 0 0 1
f 45/1/1 61/3/3 62/4/4
f 61/5/5 39/7/7 40/8/8
f 39/9/9 1/11/11 2/12/12
f 1/13/13 3/15/15 4/16/16
f 3/17/17 5/19/19 6/20/20
f 5/21/21 7/23/23 8/24/24
f 7/23/23 9/25/25 10/26/26
f 9/25/25 11/27/27 12/28/28
f 11/27/27 13/29/29 14/30/30
f 13/29/29 15/31/31 16/32/32
f 15/31/31 17/33/33 18/34/34
f 17/33/33 19/35/35 20/36/36
f 19/35/35 21/37/37 22/38/38
f 21/37/37 23/39/39 24/40/40
f 23/39/39 25/41/41 26/42/42
f 25/41/41 27/43/43 28/44/44
f 27/43/43 29/45/45 30/46/46
f 29/45/45 31/47/47 32/48/48
f 31/47/47 33/49/49 34/50/50
f 33/49/49 35/51/51 36/52/52
f 35/51/51 37/53/53 38/54/54
f 37/53/53 41/55/55 42/56/56
f 41/55/55 43/57/57 44/58/58
f 43/57/57 47/59/59 48/60/60
f 47/59/59 51/61/61 52/62/62
f 51/61/61 55/63/63 56/64/64
f 55/63/63 59/65/65 60/66/66
f 59/65/65 65/67/67 66/68/68
f 65/67/67 69/69/69 70/70/70
f 69/69/69 73/71/71 74/72/72
f 73/71/71 71/73/73 72/74/74
f 71/73/73 67/75/75 68/76/76
f 67/75/75 63/77/77 64/78/78
f 63/77/77 57/79/79 58/80/80
f 57/79/79 53/81/81 54/82/82
f 53/81/81 49/83/83 50/84/84
f 49/83/83 45/85/85 46/86/86
f 5/92/92 3/91/91 1/90/90
f 7/93/93 5/92/92 29/104/104
f 39/89/89 5/92/92 1/90/90
f 11/95/95 9/94/94 25/102/102
f 15/97/97 13/96/96 21/100/100
f 23/101/101 13/96/96 11/95/95
f 27/103/103 9/94/94 7/93/93
f 37/108/108 5/92/92 45/87/87
f 49/123/123 53/122/122 55/113/113
f 45/87/87 39/89/89 61/88/88
f 5/92/92 39/89/89 45/87/87
f 67/119/119 71/118/118 73/117/117
f 63/120/120 65/115/115 57/121/121
f 69/116/116 63/120/120 67/119/119
f 57/121/121 59/114/114 53/122/122
f 45/87/87 49/123/123 51/112/112
f 19/99/99 17/98/98 15/97/97
f 13/96/96 23/101/101 21/100/100
f 23/101/101 11/95/95 25/102/102
f 9/94/94 27/103/103 25/102/102
f 29/104/104 5/92/92 31/105/105
f 35/107/107 33/106/106 5/92/92
f 5/92/92 33/106/106 31/105/105
f 27/103/103 7/93/93 29/104/104
f 5/92/92 37/108/108 35/107/107
f 59/114/114 57/121/121 65/115/115
f 73/117/117 69/116/116 67/119/119
f 69/116/116 65/115/115 63/120/120
f 59/114/114 55/113/113 53/122/122
f 47/111/111 43/110/110 45/87/87
f 49/123/123 55/113/113 51/112/112
f 45/87/87 51/112/112 47/111/111
f 43/110/110 41/109/109 45/87/87
f 45/87/87 41/109/109 37/108/108
f 15/97/97 21/100/100 19/99/99
f 6/129/129 2/127/127 4/128/128
f 8/130/130 30/141/141 6/129/129
f 40/126/126 2/127/127 6/129/129
f 12/132/132 26/139/139 10/131/131
f 16/134/134 22/137/137 14/133/133
f 24/138/138 12/132/132 14/133/133
f 28/140/140 8/130/130 10/131/131
f 38/145/145 46/124/124 6/129/129
f 50/160/160 56/150/150 54/159/159
f 46/124/124 62/125/125 40/126/126
f 6/129/129 46/124/124 40/126/126
f 68/156/156 74/154/154 72/155/155
f 64/157/157 58/158/158 66/152/152
f 70/153/153 68/156/156 64/157/157
f 58/158/158 54/159/159 60/151/151
f 46/124/124 52/149/149 50/160/160
f 20/136/136 16/134/134 18/135/135
f 14/133/133 22/137/137 24/138/138
f 24/138/138 26/139/139 12/132/132
f 10/131/131 26/139/139 28/140/140
f 30/141/141 32/142/142 6/129/129
f 36/144/144 6/129/129 34/143/143
f 6/129/129 32/142/142 34/143/143
f 28/140/140 30/141/141 8/130/130
f 6/129/129 36/144/144 38/145/145
f 60/151/151 66/152/152 58/158/158
f 74/154/154 68/156/156 70/153/153
f 70/153/153 64/157/157 66/152/152
f 60/151/151 54/159/159 56/150/150
f 48/148/148 46/124/124 44/147/147
f 50/160/160 52/149/149 56/150/150
f 46/124/124 48/148/148 52/149/149
f 44/147/147 46/124/124 42/146/146
f 46/124/124 38/145/145 42/146/146
f 16/134/134 20/136/136 22/137/137
f 45/1/1 62/4/4 46/2/2
f 61/5/5 40/8/8 62/6/6
f 39/9/9 2/12/12 40/10/10
f 1/13/13 4/16/16 2/14/14
f 3/17/17 6/20/20 4/18/18
f 5/21/21 8/24/24 6/22/22
f 7/23/23 10/26/26 8/24/24
f 9/25/25 12/28/28 10/26/26
f 11/27/27 14/30/30 12/28/28
f 13/29/29 16/32/32 14/30/30
f 15/31/31 18/34/34 16/32/32
f 17/33/33 20/36/36 18/34/34
f 19/35/35 22/38/38 20/36/36
f 21/37/37 24/40/40 22/38/38
f 23/39/39 26/42/42 24/40/40
f 25/41/41 28/44/44 26/42/42
f 27/43/43 30/46/46 28/44/44
f 29/45/45 32/48/48 30/46/46
f 31/47/47 34/50/50 32/48/48
f 33/49/49 36/52/52 34/50/50
f 35/51/51 38/54/54 36/52/52
f 37/53/53 42/56/56 38/54/54
f 41/55/55 44/58/58 42/56/56
f 43/57/57 48/60/60 44/58/58
f 47/59/59 52/62/62 48/60/60
f 51/61/61 56/64/64 52/62/62
f 55/63/63 60/66/66 56/64/64
f 59/65/65 66/68/68 60/66/66
f 65/67/67 70/70/70 66/68/68
f 69/69/69 74/72/72 70/70/70
f 73/71/71 72/74/74 74/72/72
f 71/73/73 68/76/76 72/74/74
f 67/75/75 64/78/78 68/76/76
f 63/77/77 58/80/80 64/78/78
f 57/79/79 54/82/82 58/80/80
f 53/81/81 50/84/84 54/82/82
f 49/83/83 46/86/86 50/84/84
