# Author: Mary Katherine Heinrich <mkheinrich@gmail.com>, IRIDIA, 13-November-2019. Rhino

mtllib IRIDIAepuck3D_Nov2019_LeftLED.mtl
o object_1
usemtl Grey
v 0.01115703396499157 0.02278855256736279 0.07459999620914459
v 0.01115703396499157 0.02278855256736279 0.07626666873693466
v 0.01174629013985395 0.02337780967354775 0.07459999620914459
v 0.01174629013985395 0.02337780967354775 0.07626666873693466
v 0.01204091776162386 0.02308318205177784 0.07459999620914459
v 0.01204091776162386 0.02308318205177784 0.07626666873693466
v 0.01218823902308941 0.02317968942224979 0.07459999620914459
v 0.01218823902308941 0.02317968942224979 0.07626666873693466
v 0.01234372705221176 0.02326397225260735 0.07459999620914459
v 0.01234372705221176 0.02326397225260735 0.07626666873693466
v 0.01250653248280287 0.02333466894924641 0.07459999620914459
v 0.01250653248280287 0.02333466894924641 0.07626666873693466
v 0.0126756252720952 0.02339055761694908 0.07459999620914459
v 0.0126756252720952 0.02339055761694908 0.07626666873693466
v 0.01284980960190296 0.02343060076236725 0.07459999620914459
v 0.01284980960190296 0.02343060076236725 0.07626666873693466
v 0.01302775088697672 0.0234539806842804 0.07459999620914459
v 0.01302775088697672 0.0234539806842804 0.07626666873693466
v 0.01320800185203552 0.0234601404517889 0.07459999620914459
v 0.01320800185203552 0.0234601404517889 0.07626666873693466
v 0.01338904444128275 0.02344880253076553 0.07459999620914459
v 0.01338904444128275 0.02344880253076553 0.07626666873693466
v 0.01356932707130909 0.02341999299824238 0.07459999620914459
v 0.01356932707130909 0.02341999299824238 0.07626666873693466
v 0.01374731212854385 0.02337402850389481 0.07459999620914459
v 0.01374731212854385 0.02337402850389481 0.07626666873693466
v 0.01392151974141598 0.02331152185797691 0.07459999620914459
v 0.01392151974141598 0.02331152185797691 0.07626666873693466
v 0.01409056503325701 0.02323334291577339 0.07459999620914459
v 0.01409056503325701 0.02323334291577339 0.07626666873693466
v 0.01425319351255894 0.02314059436321259 0.07459999620914459
v 0.01425319351255894 0.02314059436321259 0.07626666873693466
v 0.01440831553190947 0.02303457260131836 0.07459999620914459
v 0.01440831553190947 0.02303457260131836 0.07626666873693466
v 0.01455501560121775 0.02291671559214592 0.07459999620914459
v 0.01455501560121775 0.02291671559214592 0.07626666873693466
v 0.01469256822019815 0.01925301924347878 0.07459999620914459
v 0.01469256822019815 0.01925301924347878 0.07626666873693466
v 0.01469256822019815 0.02278855256736279 0.07459999620914459
v 0.01469256822019815 0.02278855256736279 0.07626666873693466
v 0.01482072938233614 0.02265100181102753 0.07459999620914459
v 0.01482072938233614 0.02265100181102753 0.07626666873693466
v 0.01493858732283115 0.02250430174171925 0.07459999620914459
v 0.01493858732283115 0.02250430174171925 0.07626666873693466
v 0.01498719584196806 0.02013690397143364 0.07459999620914459
v 0.01498719584196806 0.02013690397143364 0.07626666873693466
v 0.01504460908472538 0.02234918065369129 0.07459999620914459
v 0.01504460908472538 0.02234918065369129 0.07626666873693466
v 0.01508370507508516 0.02028422616422176 0.07459999620914459
v 0.01508370507508516 0.02028422616422176 0.07626666873693466
v 0.01513735670596361 0.02218654938042164 0.07459999620914459
v 0.01513735670596361 0.02218654938042164 0.07626666873693466
v 0.01516798604279757 0.02043971233069897 0.07459999620914459
v 0.01516798604279757 0.02043971233069897 0.07626666873693466
v 0.01521553657948971 0.02201750501990318 0.07459999620914459
v 0.01521553657948971 0.02201750501990318 0.07626666873693466
v 0.01523868273943663 0.02060251869261265 0.07459999620914459
v 0.01523868273943663 0.02060251869261265 0.07626666873693466
v 0.01527804415673018 0.02184329740703106 0.07459999620914459
v 0.01527804415673018 0.02184329740703106 0.07626666873693466
v 0.01528182439506054 0.01984227634966373 0.07459999620914459
v 0.01528182439506054 0.01984227634966373 0.07626666873693466
v 0.01529457233846188 0.02077160961925983 0.07459999620914459
v 0.01529457233846188 0.02077160961925983 0.07626666873693466
v 0.0153240067884326 0.0216653123497963 0.07459999620914459
v 0.0153240067884326 0.0216653123497963 0.07626666873693466
v 0.01533461455255747 0.02094579488039017 0.07459999620914459
v 0.01533461455255747 0.02094579488039017 0.07626666873693466
v 0.01535281725227833 0.02148503065109253 0.07459999620914459
v 0.01535281725227833 0.02148503065109253 0.07626666873693466
v 0.01535799540579319 0.0211237370967865 0.07459999620914459
v 0.01535799540579319 0.0211237370967865 0.07626666873693466
v 0.01536415424197912 0.02130398713052273 0.07459999620914459
v 0.01536415424197912 0.02130398713052273 0.07626666873693466
vt 0 0
vt 0 0.6249995827674866
vt 0.01435205340385437 0
vt 0.01435205340385437 0.6249995827674866
vt 0.02870410680770874 0
vt 0.02870410680770874 0.6249995827674866
vt 0.04305616021156311 0
vt 0.04305616021156311 0.6249995827674866
vt 0.05740821361541748 0
vt 0.05740821361541748 0.6249995827674866
vt 0.07176026701927185 0
vt 0.07176026701927185 0.6249995827674866
vt 0.08611232042312622 0
vt 0.08611232042312622 0.6249995827674866
vt 0.1004643738269806 0
vt 0.1004643738269806 0.6249995827674866
vt 0.114816427230835 0
vt 0.114816427230835 0.6249995827674866
vt 0.1291684806346893 0
vt 0.1291684806346893 0.6249995827674866
vt 0.1435205340385437 0
vt 0.1435205340385437 0.6249995827674866
vt 0.1578725874423981 0
vt 0.1578725874423981 0.6249995827674866
vt 0.1722246408462524 0
vt 0.1722246408462524 0.6249995827674866
vt 0.1865766942501068 0
vt 0.1865766942501068 0.6249995827674866
vt 0.2009287476539612 0
vt 0.2009287476539612 0.6249995827674866
vt 0.2152808010578156 0
vt 0.2152808010578156 0.6249995827674866
vt 0.2296328544616699 0
vt 0.2296328544616699 0.6249995827674866
vt 0.2439849078655243 0
vt 0.2439849078655243 0.6249995827674866
vt 0.2583369612693787 0
vt 0.2583369612693787 0.6249995827674866
vt 0.272689014673233 0
vt 0.272689014673233 0.6249995827674866
vt 0.2870410680770874 0
vt 0.2870410680770874 0.6249995827674866
vt 0.3013931214809418 0
vt 0.3013931214809418 0.6249995827674866
vt 0.3157451748847961 0
vt 0.3157451748847961 0.6249995827674866
vt 0.3300972282886505 0
vt 0.3300972282886505 0.6249995827674866
vt 0.3444492816925049 0
vt 0.3444492816925049 0.6249995827674866
vt 0.3588013350963593 0
vt 0.3588013350963593 0.6249995827674866
vt 0.3731533885002136 0
vt 0.3731533885002136 0.6249995827674866
vt 0.387505441904068 0
vt 0.387505441904068 0.6249995827674866
vt 0.4018574953079224 0
vt 0.4018574953079224 0.6249995827674866
vt 0.4162095487117767 0
vt 0.4162095487117767 0.6249995827674866
vt 0.4305616021156311 0
vt 0.4305616021156311 0.6249995827674866
vt 0.4449136555194855 0
vt 0.4449136555194855 0.6249995827674866
vt 0.4592657089233398 0
vt 0.4592657089233398 0.6249995827674866
vt 0.4592657089233398 0
vt 0.4592657089233398 0.6249995827674866
vt 0.4893064796924591 0
vt 0.4893064796924591 0.6249995827674866
vt 0.4893064796924591 0
vt 0.4893064796924591 0.6249995827674866
vt 0.5493881106376648 0
vt 0.5493881106376648 0.6249995827674866
vt 0.5493881106376648 0
vt 0.5493881106376648 0.6249995827674866
vt 0.9098775982856751 0
vt 0.9098775982856751 0.6249995827674866
vt 0.9098775982856751 0
vt 0.9098775982856751 0.6249995827674866
vt 0.9699591994285584 0
vt 0.9699591994285584 0.6249995827674866
vt 0.9699591994285584 0
vt 0.9699591994285584 0.6249995827674866
vt 1 0
vt 1 0.6249995827674866
vt 0.03124594688415527 0.7500001788139343
vt 0.03394035995006561 0.7758621573448181
vt 0.03771615028381348 0.8012936115264893
vt 0.04260031133890152 0.8260601758956909
vt 0.04860302433371544 0.8499230742454529
vt 0.05571606755256653 0.872645378112793
vt 0.06391186267137528 0.8939986824989319
vt 0.07314330339431763 0.9137704968452454
vt 0.08334440737962723 0.9317705035209656
vt 0.09443178772926331 0.9478364586830139
vt 0.106306903064251 0.9618395566940308
vt 0.1188589781522751 0.9736870527267456
vt 0.1319683343172073 0.9833247661590576
vt 0.1455100029706955 0.9907369613647461
vt 0.1593574285507202 0.9959447383880615
vt 0.173385888338089 0.9990038275718689
vt 0.1874756813049316 1
vt 0.2015654742717743 0.9990038275718689
vt 0.2155939340591431 0.9959447383880615
vt 0.2294413596391678 0.9907369613647461
vt 0.2429830282926559 0.9833247661590576
vt 0.256092369556427 0.9736870527267456
vt 0.2686444520950317 0.9618395566940308
vt 0.2805195748806 0.9478364586830139
vt 0.2916069626808167 0.9317705035209656
vt 0.3018080592155457 0.9137704968452454
vt 0.3110395073890686 0.8939986824989319
vt 0.3192352950572968 0.872645378112793
vt 0.3263483345508575 0.8499230742454529
vt 0.3323510587215424 0.8260601758956909
vt 0.3372352123260498 0.8012936115264893
vt 0.3410110175609589 0.7758621573448181
vt 0.343705415725708 0.7500001788139343
vt 0.3749513626098633 0.7500001788139343
vt 0.3749513626098633 0.6250002384185791
vt 0 0.6250002384185791
vt 0 0.7500001788139343
vt 0.03124594688415527 0.8750000596046448
vt 0.03394035995006561 0.849138081073761
vt 0.03771615028381348 0.8237066268920898
vt 0.04260031133890152 0.7989400625228882
vt 0.04860302433371544 0.7750771641731262
vt 0.05571606755256653 0.7523548603057861
vt 0.06391186267137528 0.7310014963150024
vt 0.07314330339431763 0.7112297415733337
vt 0.08334440737962723 0.6932297348976135
vt 0.09443178772926331 0.6771637201309204
vt 0.106306903064251 0.6631606817245483
vt 0.1188589781522751 0.6513131856918335
vt 0.1319683343172073 0.6416754722595215
vt 0.1455100029706955 0.634263277053833
vt 0.1593574285507202 0.6290554404258728
vt 0.173385888338089 0.6259964108467102
vt 0.1874756813049316 0.6250002384185791
vt 0.2015654742717743 0.6259964108467102
vt 0.2155939340591431 0.6290554404258728
vt 0.2294413596391678 0.634263277053833
vt 0.2429830282926559 0.6416754722595215
vt 0.256092369556427 0.6513131856918335
vt 0.2686444520950317 0.6631606817245483
vt 0.2805195748806 0.6771637201309204
vt 0.2916069626808167 0.6932297348976135
vt 0.3018080592155457 0.7112297415733337
vt 0.3110395073890686 0.7310014963150024
vt 0.3192352950572968 0.7523548603057861
vt 0.3263483345508575 0.7750771641731262
vt 0.3323510587215424 0.7989400625228882
vt 0.3372352123260498 0.8237066268920898
vt 0.3410110175609589 0.849138081073761
vt 0.343705415725708 0.8750000596046448
vt 0.3749513626098633 0.8750000596046448
vt 0.3749513626098633 1
vt 0 1
vt 0 0.8750000596046448
vn 0.8137334585189819 -0.5812382102012634 0
vn 0.8137334585189819 -0.5812382102012634 0
vn 0.8582112789154053 -0.5132965445518494 0
vn 0.8582112789154053 -0.5132965445518494 0
vn 0.8987758159637451 -0.4384085536003113 0
vn 0.8987758159637451 -0.4384085536003113 0
vn 0.9341253638267517 -0.3569450378417969 0
vn 0.9341253638267517 -0.3569450378417969 0
vn 0.9629583358764648 -0.2696502506732941 0
vn 0.9629583358764648 -0.2696502506732941 0
vn 0.9840920567512512 -0.177659198641777 0
vn 0.9840920567512512 -0.177659198641777 0
vn 0.996594250202179 -0.08246185630559921 0
vn 0.996594250202179 -0.08246185630559921 0
vn 0.9998993277549744 0.01419117767363787 0
vn 0.9998993277549744 0.01419117767363787 0
vn 0.9938837289810181 0.1104315295815468 0
vn 0.9938837289810181 0.1104315295815468 0
vn 0.978879451751709 0.2044383436441422 0
vn 0.978879451751709 0.2044383436441422 0
vn 0.9556227922439575 0.2945931553840637 0
vn 0.9556227922439575 0.2945931553840637 0
vn 0.9251530170440674 0.3795943558216095 0
vn 0.9251530170440674 0.3795943558216095 0
vn 0.8886862397193909 0.458515852689743 0
vn 0.8886862397193909 0.458515852689743 0
vn 0.8474912047386169 0.5308094024658203 0
vn 0.8474912047386169 0.5308094024658203 0
vn 0.8027880191802979 0.5962645411491394 0
vn 0.8027880191802979 0.5962645411491394 0
vn 0.755678117275238 0.6549431681632996 0
vn 0.755678117275238 0.6549431681632996 0
vn 0.7071067690849304 0.7071067690849304 0
vn 0.7071067690849304 0.7071067690849304 0
vn 0.6549431681632996 0.755678117275238 0
vn 0.6549431681632996 0.755678117275238 0
vn 0.5962645411491394 0.8027880191802979 0
vn 0.5962645411491394 0.8027880191802979 0
vn 0.5308094024658203 0.8474912047386169 0
vn 0.5308094024658203 0.8474912047386169 0
vn 0.458515852689743 0.8886862397193909 0
vn 0.458515852689743 0.8886862397193909 0
vn 0.3795943558216095 0.9251530170440674 0
vn 0.3795943558216095 0.9251530170440674 0
vn 0.2945931553840637 0.9556227922439575 0
vn 0.2945931553840637 0.9556227922439575 0
vn 0.2044383436441422 0.978879451751709 0
vn 0.2044383436441422 0.978879451751709 0
vn 0.1104315295815468 0.9938837289810181 0
vn 0.1104315295815468 0.9938837289810181 0
vn 0.01419117767363787 0.9998993277549744 0
vn 0.01419117767363787 0.9998993277549744 0
vn -0.08246185630559921 0.996594250202179 0
vn -0.08246185630559921 0.996594250202179 0
vn -0.177659198641777 0.9840920567512512 0
vn -0.177659198641777 0.9840920567512512 0
vn -0.2696502506732941 0.9629583358764648 0
vn -0.2696502506732941 0.9629583358764648 0
vn -0.3569450378417969 0.9341253638267517 0
vn -0.3569450378417969 0.9341253638267517 0
vn -0.4384085536003113 0.8987758159637451 0
vn -0.4384085536003113 0.8987758159637451 0
vn -0.5132965445518494 0.8582112789154053 0
vn -0.5132965445518494 0.8582112789154053 0
vn -0.5812382102012634 0.8137334585189819 0
vn -0.5812382102012634 0.8137334585189819 0
vn 0.7071067690849304 0.7071067690849304 0
vn 0.7071067690849304 0.7071067690849304 0
vn 0.7071067690849304 0.7071067690849304 0
vn 0.7071067690849304 0.7071067690849304 0
vn -0.7071067690849304 0.7071067690849304 0
vn -0.7071067690849304 0.7071067690849304 0
vn -0.7071067690849304 0.7071067690849304 0
vn -0.7071067690849304 0.7071067690849304 0
vn -0.7071067690849304 -0.7071067690849304 0
vn -0.7071067690849304 -0.7071067690849304 0
vn -0.7071067690849304 -0.7071067690849304 0
vn -0.7071067690849304 -0.7071067690849304 0
vn 0.7071067690849304 -0.7071067690849304 0
vn 0.7071067690849304 -0.7071067690849304 0
vn 0.7071067690849304 -0.7071067690849304 0
vn 0.7071067690849304 -0.7071067690849304 0
vn 0.7071067690849304 0.7071067690849304 0
vn 0.7071067690849304 0.7071067690849304 0
vn 0.7071067690849304 0.7071067690849304 0
vn 0.7071067690849304 0.7071067690849304 0
vn 0 0 -1
vn 0 0 -1
vn 0 0 -1
vn 0 0 -1
vn 0 0 -1
vn 0 0 -1
vn 0 0 -1
vn 0 0 -1
vn 0 0 -1
vn 0 0 -1
vn 0 0 -1
vn 0 0 -1
vn 0 0 -1
vn 0 0 -1
vn 0 0 -1
vn 0 0 -1
vn 0 0 -1
vn 0 0 -1
vn 0 0 -1
vn 0 0 -1
vn 0 0 -1
vn 0 0 -1
vn 0 0 -1
vn 0 0 -1
vn 0 0 -1
vn 0 0 -1
vn 0 0 -1
vn 0 0 -1
vn 0 0 -1
vn 0 0 -1
vn 0 0 -1
vn 0 0 -1
vn 0 0 -1
vn 0 0 -1
vn 0 0 -1
vn 0 0 -1
vn 0 0 -1
vn 0 0 1
vn 0 0 1
vn 0 0 1
vn 0 0 1
vn 0 0 1
vn 0 0 1
vn 0 0 1
vn 0 0 1
vn 0 0 1
vn 0 0 1
vn 0 0 1
vn 0 0 1
vn 0 0 1
vn 0 0 1
vn 0 0 1
vn 0 0 1
vn 0 0 1
vn 0 0 1
vn 0 0 1
vn 0 0 1
vn 0 0 1
vn 0 0 1
vn 0 0 1
vn 0 0 1
vn 0 0 1
vn 0 0 1
vn 0 0 1
vn 0 0 1
vn 0 0 1
vn 0 0 1
vn 0 0 1
vn 0 0 1
vn 0 0 1
vn 0 0 1
vn 0 0 1
vn 0 0 1
vn 0 0 1
f 45/1/1 49/3/3 50/4/4
f 49/3/3 53/5/5 54/6/6
f 53/5/5 57/7/7 58/8/8
f 57/7/7 63/9/9 64/10/10
f 63/9/9 67/11/11 68/12/12
f 67/11/11 71/13/13 72/14/14
f 71/13/13 73/15/15 74/16/16
f 73/15/15 69/17/17 70/18/18
f 69/17/17 65/19/19 66/20/20
f 65/19/19 59/21/21 60/22/22
f 59/21/21 55/23/23 56/24/24
f 55/23/23 51/25/25 52/26/26
f 51/25/25 47/27/27 48/28/28
f 47/27/27 43/29/29 44/30/30
f 43/29/29 41/31/31 42/32/32
f 41/31/31 39/33/33 40/34/34
f 39/33/33 35/35/35 36/36/36
f 35/35/35 33/37/37 34/38/38
f 33/37/37 31/39/39 32/40/40
f 31/39/39 29/41/41 30/42/42
f 29/41/41 27/43/43 28/44/44
f 27/43/43 25/45/45 26/46/46
f 25/45/45 23/47/47 24/48/48
f 23/47/47 21/49/49 22/50/50
f 21/49/49 19/51/51 20/52/52
f 19/51/51 17/53/53 18/54/54
f 17/53/53 15/55/55 16/56/56
f 15/55/55 13/57/57 14/58/58
f 13/57/57 11/59/59 12/60/60
f 11/59/59 9/61/61 10/62/62
f 9/61/61 7/63/63 8/64/64
f 7/63/63 5/65/65 6/66/66
f 5/67/67 3/69/69 4/70/70
f 3/71/71 1/73/73 2/74/74
f 1/75/75 37/77/77 38/78/78
f 37/79/79 61/81/81 62/82/82
f 61/83/83 45/85/85 46/86/86
f 31/106/106 33/105/105 5/119/119
f 35/104/104 5/119/119 33/105/105
f 31/106/106 5/119/119 29/107/107
f 13/115/115 21/111/111 23/110/110
f 23/110/110 25/109/109 11/116/116
f 9/117/117 25/109/109 27/108/108
f 29/107/107 7/118/118 27/108/108
f 5/119/119 35/104/104 39/103/103
f 47/100/100 45/87/87 43/101/101
f 51/99/99 45/87/87 47/100/100
f 41/102/102 43/101/101 45/87/87
f 55/98/98 59/97/97 53/89/89
f 69/95/95 63/91/91 65/96/96
f 65/96/96 57/90/90 59/97/97
f 51/99/99 55/98/98 49/88/88
f 39/103/103 41/102/102 45/87/87
f 21/111/111 15/114/114 19/112/112
f 13/115/115 23/110/110 11/116/116
f 21/111/111 13/115/115 15/114/114
f 11/116/116 25/109/109 9/117/117
f 5/119/119 1/121/121 3/120/120
f 7/118/118 29/107/107 5/119/119
f 7/118/118 9/117/117 27/108/108
f 5/119/119 37/122/122 1/121/121
f 5/119/119 39/103/103 45/87/87
f 67/92/92 73/94/94 71/93/93
f 73/94/94 67/92/92 69/95/95
f 67/92/92 63/91/91 69/95/95
f 65/96/96 63/91/91 57/90/90
f 57/90/90 53/89/89 59/97/97
f 61/123/123 37/122/122 45/87/87
f 49/88/88 45/87/87 51/99/99
f 55/98/98 53/89/89 49/88/88
f 45/87/87 37/122/122 5/119/119
f 19/112/112 15/114/114 17/113/113
f 32/143/143 6/156/156 34/142/142
f 36/141/141 34/142/142 6/156/156
f 32/143/143 30/144/144 6/156/156
f 14/152/152 24/147/147 22/148/148
f 24/147/147 12/153/153 26/146/146
f 10/154/154 28/145/145 26/146/146
f 30/144/144 28/145/145 8/155/155
f 6/156/156 40/140/140 36/141/141
f 48/137/137 44/138/138 46/124/124
f 52/136/136 48/137/137 46/124/124
f 42/139/139 46/124/124 44/138/138
f 56/135/135 54/126/126 60/134/134
f 70/132/132 66/133/133 64/128/128
f 66/133/133 60/134/134 58/127/127
f 52/136/136 50/125/125 56/135/135
f 40/140/140 46/124/124 42/139/139
f 22/148/148 20/149/149 16/151/151
f 14/152/152 12/153/153 24/147/147
f 22/148/148 16/151/151 14/152/152
f 12/153/153 10/154/154 26/146/146
f 6/156/156 4/157/157 2/158/158
f 8/155/155 6/156/156 30/144/144
f 8/155/155 28/145/145 10/154/154
f 6/156/156 2/158/158 38/159/159
f 6/156/156 46/124/124 40/140/140
f 68/129/129 72/130/130 74/131/131
f 74/131/131 70/132/132 68/129/129
f 68/129/129 70/132/132 64/128/128
f 66/133/133 58/127/127 64/128/128
f 58/127/127 60/134/134 54/126/126
f 62/160/160 46/124/124 38/159/159
f 50/125/125 52/136/136 46/124/124
f 56/135/135 50/125/125 54/126/126
f 46/124/124 6/156/156 38/159/159
f 20/149/149 18/150/150 16/151/151
f 45/1/1 50/4/4 46/2/2
f 49/3/3 54/6/6 50/4/4
f 53/5/5 58/8/8 54/6/6
f 57/7/7 64/10/10 58/8/8
f 63/9/9 68/12/12 64/10/10
f 67/11/11 72/14/14 68/12/12
f 71/13/13 74/16/16 72/14/14
f 73/15/15 70/18/18 74/16/16
f 69/17/17 66/20/20 70/18/18
f 65/19/19 60/22/22 66/20/20
f 59/21/21 56/24/24 60/22/22
f 55/23/23 52/26/26 56/24/24
f 51/25/25 48/28/28 52/26/26
f 47/27/27 44/30/30 48/28/28
f 43/29/29 42/32/32 44/30/30
f 41/31/31 40/34/34 42/32/32
f 39/33/33 36/36/36 40/34/34
f 35/35/35 34/38/38 36/36/36
f 33/37/37 32/40/40 34/38/38
f 31/39/39 30/42/42 32/40/40
f 29/41/41 28/44/44 30/42/42
f 27/43/43 26/46/46 28/44/44
f 25/45/45 24/48/48 26/46/46
f 23/47/47 22/50/50 24/48/48
f 21/49/49 20/52/52 22/50/50
f 19/51/51 18/54/54 20/52/52
f 17/53/53 16/56/56 18/54/54
f 15/55/55 14/58/58 16/56/56
f 13/57/57 12/60/60 14/58/58
f 11/59/59 10/62/62 12/60/60
f 9/61/61 8/64/64 10/62/62
f 7/63/63 6/66/66 8/64/64
f 5/67/67 4/70/70 6/68/68
f 3/71/71 2/74/74 4/72/72
f 1/75/75 38/78/78 2/76/76
f 37/79/79 62/82/82 38/80/80
f 61/83/83 46/86/86 62/84/84
